<?xml version="1.0" standalone="no"?> <!DOCTYPE svg PUBLIC "-//W3C//DTD SVG 20010904//EN" "http://www.w3.org/TR/2001/REC-SVG-20010904/DTD/svg10.dtd"> <svg version="1.0" xmlns="http://www.w3.org/2000/svg" width="1800.000000pt" height="1536.000000pt" viewBox="0 0 1800.000000 1536.000000" preserveAspectRatio="xMidYMid meet"> <g transform="translate(0.000000,1536.000000) scale(0.100000,-0.100000)" fill="#db0a0a" stroke="none"> <path d="M10035 12954 c-21 -5 -78 -30 -105 -45 -8 -5 -26 -14 -40 -20 -69 -29 -198 -216 -249 -359 -21 -58 -111 -302 -126 -340 -7 -19 -34 -89 -60 -155 -25 -66 -52 -133 -60 -148 -8 -16 -15 -38 -15 -48 0 -11 -5 -30 -12 -42 -7 -12 -22 -49 -34 -82 -12 -33 -32 -85 -44 -115 -12 -30 -25 -66 -30 -80 -5 -14 -18 -50 -30 -80 -12 -30 -32 -84 -45 -120 -12 -36 -33 -90 -45 -120 -12 -30 -32 -84 -45 -120 -20 -58 -34 -94 -64 -165 -5 -11 -16 -40 -26 -65 -10 -25 -21 -54 -26 -65 -4 -11 -11 -31 -14 -45 -4 -14 -12 -38 -20 -55 -7 -16 -20 -49 -29 -72 -41 -109 -49 -130 -62 -155 -8 -14 -14 -35 -14 -45 0 -10 -6 -27 -13 -38 -7 -11 -21 -45 -31 -75 -24 -75 -64 -181 -92 -247 -8 -17 -14 -35 -14 -39 0 -5 -21 -60 -46 -124 -53 -134 -71 -180 -91 -235 -8 -22 -21 -53 -28 -70 -7 -16 -20 -50 -28 -75 -8 -25 -27 -76 -42 -115 -14 -38 -35 -97 -47 -130 -11 -33 -26 -71 -33 -85 -13 -26 -21 -45 -75 -190 -17 -47 -38 -102 -46 -122 -8 -21 -20 -55 -28 -75 -8 -21 -28 -74 -46 -118 -18 -44 -38 -97 -46 -117 -15 -40 -30 -80 -61 -161 l-18 -49 -35 -27 c-19 -16 -52 -34 -72 -41 l-37 -14 -48 25 -48 24 -25 40 c-15 22 -41 76 -59 120 -19 44 -46 107 -62 140 -16 33 -29 64 -29 67 0 4 -16 43 -36 85 -19 43 -41 92 -49 108 -7 17 -24 55 -37 85 -55 123 -88 203 -88 215 0 7 -7 18 -15 25 -8 7 -15 19 -15 26 0 13 -16 51 -95 219 -18 39 -41 92 -50 118 -10 26 -22 50 -26 53 -5 3 -9 13 -9 22 0 9 -13 43 -29 77 -16 33 -50 105 -76 160 -132 280 -184 367 -264 444 -76 73 -148 128 -196 150 -27 13 -61 29 -75 36 -14 7 -57 20 -96 29 l-72 18 -78 -5 c-92 -5 -220 -24 -249 -37 -44 -19 -132 -61 -157 -76 -40 -22 -213 -200 -252 -259 -38 -57 -61 -101 -106 -200 -17 -38 -38 -82 -46 -97 -8 -14 -14 -31 -14 -37 0 -6 -13 -39 -28 -73 -48 -104 -92 -210 -92 -219 0 -5 -17 -46 -39 -91 -21 -46 -48 -108 -60 -138 -13 -30 -28 -68 -35 -85 -8 -16 -21 -50 -31 -75 -10 -25 -23 -58 -30 -75 -28 -66 -46 -107 -59 -137 -8 -18 -49 -116 -91 -218 -42 -102 -82 -198 -89 -215 -8 -16 -28 -66 -46 -110 -18 -44 -41 -98 -51 -121 -11 -22 -19 -44 -19 -48 0 -11 -45 -108 -117 -252 l-65 -130 4 -20 3 -19 254 2 254 2 18 31 c11 17 19 39 19 50 0 11 6 34 14 52 8 18 29 69 47 113 17 44 45 109 61 145 51 111 56 123 88 210 32 86 38 101 83 200 14 30 35 80 48 110 12 30 29 64 36 75 7 11 13 27 13 36 0 10 6 30 14 46 8 15 21 44 29 63 8 19 34 76 56 127 23 50 41 94 41 98 0 8 36 92 55 128 8 16 15 34 15 42 0 13 20 62 75 180 18 39 49 111 70 160 94 226 140 299 222 355 l42 29 54 10 53 10 45 -10 c72 -15 95 -28 141 -77 42 -45 138 -191 138 -211 0 -5 13 -35 29 -67 16 -33 32 -70 36 -84 3 -14 18 -50 32 -80 14 -30 32 -68 39 -85 33 -77 60 -137 95 -213 22 -45 39 -87 39 -93 0 -6 6 -23 13 -37 18 -35 39 -84 67 -152 21 -50 81 -185 150 -335 15 -33 45 -100 65 -150 76 -182 148 -331 188 -390 24 -36 173 -181 203 -198 70 -40 114 -58 166 -72 l60 -15 88 0 c116 0 178 14 269 58 l74 37 72 70 c73 71 175 215 175 246 0 10 4 20 10 24 5 3 14 20 19 38 22 73 103 285 167 437 24 58 44 112 44 120 0 8 7 24 15 34 8 11 15 27 15 35 0 9 14 52 31 96 17 44 37 96 44 115 8 19 28 71 46 115 35 89 69 179 101 270 11 33 24 65 28 70 4 6 13 26 18 45 21 71 65 186 78 205 8 11 14 27 14 36 0 10 14 47 30 84 17 37 30 73 30 81 0 7 7 30 16 51 9 21 23 52 30 68 15 36 75 194 148 395 30 80 65 171 80 204 14 32 26 64 26 71 0 7 14 43 30 80 17 37 30 73 30 81 0 7 6 28 14 46 8 18 22 53 31 78 10 25 24 59 31 77 8 17 14 37 14 45 0 7 7 22 15 32 8 11 15 29 15 40 0 12 7 30 15 40 8 11 15 28 15 38 0 9 7 34 16 55 33 78 42 100 67 163 15 36 37 99 51 140 14 41 34 100 46 130 12 30 24 66 27 80 3 14 9 30 13 35 5 6 18 39 30 75 13 36 26 70 30 75 6 9 57 168 93 289 6 21 20 49 30 63 l19 24 36 -3 35 -3 18 -25 c19 -24 42 -94 59 -175 4 -22 18 -71 30 -110 11 -38 25 -86 29 -105 10 -41 57 -181 76 -225 7 -16 29 -79 49 -140 20 -60 53 -162 74 -225 21 -63 63 -189 92 -280 30 -91 57 -172 61 -180 4 -8 24 -64 44 -125 19 -60 39 -119 44 -130 5 -11 30 -87 56 -170 26 -82 52 -161 57 -175 27 -67 78 -221 78 -236 0 -9 6 -28 14 -42 21 -40 39 -91 91 -257 47 -150 65 -201 91 -263 8 -18 14 -39 14 -47 0 -7 6 -26 14 -42 8 -15 22 -55 31 -88 10 -33 23 -73 30 -90 7 -16 27 -77 45 -135 18 -58 38 -118 45 -135 13 -30 89 -254 105 -310 5 -16 23 -68 40 -115 45 -122 208 -607 251 -745 12 -38 25 -80 30 -92 l8 -21 213 -4 213 -3 20 -12 20 -11 23 18 22 18 0 24 c0 13 -4 28 -9 33 -5 6 -19 35 -31 65 -12 30 -28 69 -35 85 -7 17 -20 47 -29 68 -9 21 -16 44 -16 52 0 8 -6 29 -14 47 -22 52 -42 108 -61 173 -10 33 -31 92 -46 132 -16 39 -29 78 -29 86 0 9 -6 28 -14 44 -17 32 -64 171 -76 223 -4 19 -18 60 -30 90 -12 30 -26 71 -31 90 -4 19 -18 60 -29 90 -12 30 -32 89 -46 130 -13 41 -28 84 -33 95 -11 27 -28 77 -52 155 -12 36 -34 101 -49 145 -16 44 -43 125 -60 180 -17 55 -38 117 -46 138 -74 195 -104 283 -104 308 0 14 -5 30 -11 36 -6 6 -14 26 -19 44 -4 19 -31 99 -60 179 -28 80 -56 161 -61 180 -6 19 -14 44 -19 55 -4 11 -16 45 -24 75 -9 30 -23 71 -30 90 -8 19 -24 69 -37 110 -12 41 -33 100 -45 130 -12 30 -37 102 -54 160 -18 58 -43 137 -57 175 -13 39 -28 84 -33 100 -5 17 -25 75 -45 130 -20 55 -40 114 -44 130 -4 17 -13 40 -19 52 -7 12 -12 29 -12 38 0 9 -6 31 -14 48 -8 18 -21 55 -30 82 -109 339 -165 496 -198 563 -68 132 -158 218 -293 277 l-40 18 -125 3 c-69 2 -134 1 -145 -2z"/> <path d="M11301 7096 l-13 -15 4 -733 c1 -403 1 -836 -1 -962 l-3 -229 16 -18 16 -19 104 0 c58 0 127 5 155 12 l51 11 0 978 0 977 -47 5 c-27 2 -98 5 -159 6 l-111 2 -12 -15z"/> <path d="M11962 7096 c-4 -6 -7 -447 -6 -980 l1 -969 19 -14 19 -15 131 5 130 4 24 13 23 12 -8 77 c-4 42 -9 478 -11 970 -2 492 -5 896 -8 898 -2 3 -72 6 -155 7 l-151 3 -8 -11z"/> <path d="M4685 7014 l-10 -4 3 -792 c2 -436 -1 -851 -5 -922 l-8 -129 16 -21 17 -21 135 -3 134 -4 33 17 32 17 -7 21 c-17 60 -24 177 -25 432 -1 154 -5 341 -10 415 -6 74 -13 183 -16 241 l-7 106 12 7 c20 13 46 -3 62 -37 9 -17 43 -86 77 -152 34 -66 62 -125 62 -132 0 -6 6 -18 13 -25 6 -7 21 -31 32 -53 11 -22 39 -73 62 -113 24 -41 43 -75 43 -77 0 -2 14 -24 30 -49 17 -25 40 -64 51 -88 11 -24 33 -65 49 -93 16 -27 45 -82 65 -121 l36 -70 28 -17 29 -17 61 0 60 0 24 33 c14 17 43 68 64 112 22 44 51 98 65 120 13 22 39 67 58 100 83 153 107 195 147 270 24 44 79 153 123 242 l80 162 19 10 19 11 12 -15 13 -15 -11 -183 c-6 -100 -14 -357 -17 -572 -3 -214 -8 -402 -11 -417 l-5 -26 22 -21 23 -21 140 0 c78 0 147 4 154 8 l13 9 0 928 0 928 -11 11 -10 10 -142 -2 -142 -3 -12 -10 c-7 -6 -32 -50 -56 -97 -23 -48 -62 -120 -85 -160 -24 -41 -43 -75 -43 -77 0 -2 -14 -24 -30 -48 -16 -25 -30 -48 -30 -52 0 -4 -20 -41 -45 -82 -25 -40 -45 -75 -45 -78 0 -2 -20 -38 -45 -79 -25 -42 -45 -79 -45 -81 0 -3 -12 -24 -27 -48 -36 -56 -183 -348 -183 -362 0 -7 -9 -20 -20 -30 l-20 -18 -25 11 c-14 6 -25 17 -25 23 0 18 -52 132 -89 194 -10 17 -35 62 -55 100 -21 39 -42 75 -46 80 -4 6 -24 42 -45 80 -20 39 -44 77 -51 86 -8 8 -14 19 -14 23 0 5 -61 111 -130 226 -5 8 -20 35 -33 60 -14 25 -34 61 -45 80 -12 19 -45 82 -74 138 -29 57 -60 107 -68 112 -16 8 -279 21 -295 14z"/> <path d="M8775 6881 c-8 -14 3 -185 17 -249 l11 -52 -11 -25 -12 -25 -57 0 -58 0 -29 15 c-40 21 -63 19 -80 -7 l-15 -23 4 -110 c2 -60 4 -115 4 -121 2 -21 32 -24 123 -13 l90 11 12 -12 11 -11 0 -372 c1 -205 4 -385 7 -402 4 -16 10 -49 14 -72 3 -24 13 -48 20 -54 8 -6 14 -19 14 -29 0 -9 25 -43 56 -74 l55 -58 84 -39 84 -38 88 -6 88 -6 60 10 c136 23 235 68 235 108 0 9 -13 43 -29 77 -15 34 -31 73 -34 87 -4 15 -16 37 -26 50 l-20 24 -51 -27 -50 -28 -83 0 -83 0 -34 25 -34 25 -18 48 -18 47 0 146 c0 80 -5 237 -10 349 l-11 203 14 14 14 15 177 -12 176 -13 15 13 15 12 0 123 0 122 -20 18 -19 17 -98 -12 c-54 -7 -133 -14 -175 -17 l-77 -4 -12 22 -12 22 13 66 c6 36 13 107 13 156 l2 90 -167 3 -167 2 -6 -9z"/> <path d="M10215 6565 c-315 -54 -538 -297 -575 -625 l-10 -95 14 -105 c25 -195 81 -304 224 -438 l67 -63 80 -39 c44 -22 112 -49 150 -61 l70 -23 165 1 165 1 70 21 c39 12 106 39 150 61 l80 40 53 50 c68 64 67 69 -33 173 -95 97 -100 99 -141 56 -220 -230 -674 -132 -779 168 -21 58 -18 66 22 66 16 0 253 -1 528 -2 275 -1 510 -1 523 -1 l22 0 0 91 0 91 -16 66 c-37 156 -64 225 -113 297 -151 219 -422 321 -716 270z m237 -269 c121 -29 213 -104 263 -214 l26 -56 -3 -30 -3 -29 -388 -1 c-214 -1 -391 2 -393 5 -7 12 27 111 51 148 95 148 273 218 447 177z"/> <path d="M8030 6560 c-9 -6 -20 -305 -21 -635 l-2 -260 -24 -52 -25 -52 -47 -44 c-26 -24 -71 -56 -101 -72 l-55 -28 -95 -1 -96 -1 -44 19 -45 19 -50 53 -51 52 -17 55 -18 56 1 423 c0 233 0 433 0 446 l0 22 -164 0 -165 0 -7 -12 c-4 -6 -6 -34 -5 -62 1 -28 6 -255 10 -504 l9 -454 11 -11 c6 -6 11 -19 11 -29 0 -52 147 -254 204 -279 12 -5 37 -19 56 -30 19 -12 64 -30 100 -42 l65 -20 137 1 137 1 38 16 c21 9 45 21 53 26 8 5 25 13 38 19 12 5 53 39 89 75 74 71 78 73 91 48 l10 -16 -9 -31 c-8 -28 -13 -105 -6 -106 66 -14 196 -29 239 -30 l57 0 4 18 c2 9 5 328 6 708 l1 692 -13 10 -12 10 -144 4 c-78 2 -146 1 -151 -2z"/> <path d="M893 3 c97 -2 257 -2 355 0 97 1 17 2 -178 2 -195 0 -275 -1 -177 -2z"/> <path d="M5148 3 c68 -2 176 -2 240 0 64 1 9 3 -123 3 -132 0 -185 -2 -117 -3z"/> <path d="M6108 3 c68 -2 176 -2 240 0 64 1 9 3 -123 3 -132 0 -185 -2 -117 -3z"/> <path d="M7668 3 c133 -2 351 -2 485 0 133 1 24 2 -243 2 -267 0 -376 -1 -242 -2z"/> <path d="M10668 3 c200 -2 524 -2 720 0 196 1 33 2 -363 2 -396 0 -557 -1 -357 -2z"/> <path d="M14028 3 c67 -2 177 -2 245 0 67 1 12 3 -123 3 -135 0 -190 -2 -122 -3z"/> </g> </svg>